<svg width="196" height="32" viewBox="0 0 196 32" fill="none" xmlns="http://www.w3.org/2000/svg">
<path d="M18.7874 18.9062C18.7874 17.3914 19.1291 16.0798 19.8127 14.9714C20.4962 13.8445 21.4383 12.9948 22.6391 12.4221C23.8029 11.8494 25.0776 11.5631 26.4631 11.5631C27.8855 11.5631 29.1694 11.8494 30.3147 12.4221C31.4786 12.9948 32.393 13.8261 33.058 14.916C33.7415 16.0429 34.0833 17.373 34.0833 18.9062C34.0833 20.4211 33.7415 21.7419 33.058 22.8688C32.393 23.9956 31.4693 24.8639 30.287 25.4735C29.1047 26.0831 27.8301 26.3879 26.4631 26.3879C25.096 26.3879 23.8214 26.0831 22.6391 25.4735C21.4568 24.8639 20.5239 24.0049 19.8404 22.8965C19.1384 21.7511 18.7874 20.4211 18.7874 18.9062ZM81.9385 30.9601H78.5578V12.0065H81.6891V13.9184C82.1879 13.161 82.8437 12.5884 83.6565 12.2004C84.4693 11.8125 85.4946 11.6185 86.7323 11.6185C88.0439 11.6185 89.1985 11.9233 90.1961 12.5329C91.1936 13.1241 91.9695 13.9739 92.5237 15.0823C93.0594 16.2461 93.3273 17.53 93.3273 18.9339C93.3273 20.3933 93.0502 21.6865 92.496 22.8134C91.9603 23.9217 91.2028 24.7808 90.2238 25.3904C89.7804 25.7044 89.2447 25.9353 88.6166 26.0831C88.007 26.2494 87.3789 26.3325 86.7323 26.3325C85.5315 26.3325 84.534 26.194 83.7396 25.9169C82.9637 25.6398 82.3634 25.141 81.9385 24.4205V30.9601ZM69.0533 26.4988L63.733 12.0065H67.2799C68.6284 15.7196 69.7738 19.1187 70.7159 22.2037C71.695 18.8231 72.8034 15.424 74.0411 12.0065H77.4217L72.2677 26.2771C71.8243 27.4779 71.3994 28.3831 70.993 28.9927C70.5866 29.6023 70.0878 30.0641 69.4967 30.3782C68.8686 30.7107 68.0465 30.877 67.0305 30.877C66.4393 30.877 66.1253 30.8677 66.0884 30.8493L64.9522 28.1891C65.2663 28.263 65.7004 28.2999 66.2546 28.2999C67.3815 28.2999 68.1574 28.0044 68.5823 27.4132C68.7485 27.21 68.9055 26.9052 69.0533 26.4988ZM22.1957 18.8785C22.1957 20.4118 22.5559 21.5849 23.2764 22.3977C24.0153 23.1921 25.0498 23.5892 26.3799 23.5892C27.7285 23.5892 28.7722 23.1828 29.5112 22.37C30.2501 21.5572 30.6195 20.3933 30.6195 18.8785C30.6195 17.4007 30.2501 16.2738 29.5112 15.4979C28.7722 14.722 27.7285 14.3341 26.3799 14.3341C25.0314 14.3341 23.9969 14.722 23.2764 15.4979C22.5559 16.2738 22.1957 17.4007 22.1957 18.8785ZM81.8553 18.9062C81.8923 20.3102 82.2618 21.4278 82.9637 22.2591C83.6842 23.072 84.6725 23.4784 85.9287 23.4784C87.1849 23.4784 88.164 23.072 88.866 22.2591C89.568 21.4278 89.9282 20.3102 89.9467 18.9062C89.9282 17.5207 89.568 16.4216 88.866 15.6087C88.164 14.7959 87.1849 14.3895 85.9287 14.3895C84.6725 14.3895 83.6842 14.7959 82.9637 15.6087C82.2618 16.4031 81.8923 17.5023 81.8553 18.9062ZM15.5453 6.3259H19.5356L12.6912 15.6365L19.8681 26H15.8501L9.67079 17.1605H6.70582V26H3.18665V9.62339H0.52649L2.29993 6.3259H6.70582V14.1124H9.67079L15.5453 6.3259ZM39.2374 26H35.8845V12.0065H39.2374V17.3268H44.9733V12.0065H48.2985V26H44.9733V20.0978H39.2374V26ZM54.4779 14.6666H49.7672V12.0065H62.6523V14.6666H57.8862V26H54.4779V14.6666Z" fill="#222222"/>
<path d="M113.52 14.9991L116.568 6.3259H120.614V26H118.12V16.1907C118.12 12.9763 118.148 10.3069 118.203 8.18247C117.446 10.4916 116.614 12.9024 115.709 15.4148L111.996 26H109.751L106.26 16.1352C105.041 12.847 104.126 10.2145 103.517 8.23789V10.233L103.544 16.1907V26H101.134V6.3259H105.179L108.255 14.9991C109.53 18.4352 110.417 21.0399 110.915 22.8134C111.433 21.0584 112.301 18.4536 113.52 14.9991ZM135.811 16.44V26H133.649V24.1157C133.15 24.8547 132.485 25.4273 131.654 25.8337C130.823 26.2217 129.862 26.4157 128.772 26.4157C127.22 26.4157 126.001 26.0647 125.115 25.3627C124.246 24.6607 123.812 23.6724 123.812 22.3977V22.2591C123.812 20.8552 124.302 19.793 125.281 19.0725C126.278 18.3336 127.812 17.9087 129.881 17.7978L133.538 17.5485V16.6063C133.538 15.6088 133.252 14.8606 132.679 14.3618C132.107 13.8445 131.275 13.5859 130.185 13.5859C129.28 13.5859 128.458 13.7707 127.719 14.1401C126.999 14.4911 126.26 15.0823 125.502 15.9136L123.978 14.5281C125.586 12.5884 127.636 11.6185 130.13 11.6185C131.922 11.6185 133.317 12.0434 134.314 12.8932C135.312 13.7429 135.811 14.9252 135.811 16.44ZM133.538 20.8182V19.3219L130.047 19.4881C128.606 19.562 127.59 19.8022 126.999 20.2086C126.408 20.615 126.112 21.2616 126.112 22.1483V22.2869C126.112 23.0073 126.38 23.5615 126.916 23.9495C127.47 24.3374 128.246 24.5314 129.243 24.5314C130.038 24.5314 130.767 24.3743 131.432 24.0603C132.097 23.7463 132.615 23.3029 132.984 22.7302C133.354 22.1575 133.538 21.5202 133.538 20.8182ZM153.608 18.8785V19.0171C153.608 20.458 153.322 21.7327 152.749 22.8411C152.195 23.9495 151.4 24.8085 150.366 25.4181C149.35 26.0277 148.168 26.3325 146.819 26.3325C144.325 26.3325 142.57 25.5474 141.554 23.9772V30.9878H139.171V12.0065H141.388V14.4726C142.478 12.5884 144.297 11.6462 146.847 11.6462C148.14 11.6462 149.304 11.951 150.338 12.5607C151.373 13.1703 152.176 14.02 152.749 15.11C153.322 16.1814 153.608 17.4376 153.608 18.8785ZM151.197 19.0171V18.8785C151.197 17.844 150.994 16.9388 150.588 16.1629C150.2 15.3686 149.645 14.7497 148.925 14.3064C148.168 13.863 147.336 13.6413 146.431 13.6413C145.489 13.6413 144.63 13.863 143.854 14.3064C143.097 14.7313 142.505 15.3316 142.081 16.1075C141.656 16.9019 141.443 17.8256 141.443 18.8785V19.0171C141.443 20.6243 141.896 21.9174 142.801 22.8965C143.706 23.8571 144.907 24.3374 146.403 24.3374C147.327 24.3374 148.149 24.1157 148.87 23.6724C149.608 23.2105 150.181 22.5732 150.588 21.7604C150.994 20.966 151.197 20.0516 151.197 19.0171ZM168.688 26H165.972L161.068 19.8207H158.657V26H156.274V12.0065H158.657V17.881H161.096L165.695 12.0065H168.245L163.008 18.74L168.688 26ZM181.248 22.0929L182.662 23.5615C181.683 24.5776 180.704 25.3073 179.724 25.7506C178.745 26.1755 177.6 26.3879 176.288 26.3879C174.811 26.3879 173.517 26.0924 172.409 25.5012C171.319 24.8916 170.469 24.0234 169.86 22.8965C169.25 21.7881 168.945 20.4949 168.945 19.0171C168.945 17.6131 169.25 16.3477 169.86 15.2208C170.469 14.0755 171.31 13.1887 172.381 12.5607C173.453 11.9326 174.709 11.6185 176.15 11.6185C178.182 11.6185 179.761 12.2189 180.888 13.4197C182.034 14.6204 182.606 16.2738 182.606 18.3798L182.551 19.405H171.411C171.615 21.474 172.409 22.9242 173.794 23.7555C174.533 24.1804 175.402 24.3928 176.399 24.3928C177.36 24.3928 178.21 24.2173 178.949 23.8663C179.706 23.5153 180.473 22.9242 181.248 22.0929ZM171.495 17.6593H180.334C180.279 16.3846 179.872 15.3778 179.115 14.6389C178.376 13.8815 177.378 13.5028 176.122 13.5028C174.884 13.5028 173.85 13.8815 173.019 14.6389C172.187 15.3778 171.679 16.3846 171.495 17.6593ZM195.415 12.0065V13.9461H190.51V26H188.127V13.9461H183.222V12.0065H195.415Z" fill="#2291FF"/>
</svg>
